<svg width="399" height="85" viewBox="0 0 399 85" fill="none" xmlns="http://www.w3.org/2000/svg">
<path d="M58.0404 31.6489C58.0404 34.6483 55.5224 37.0445 52.523 37.0445C51.0842 37.0445 49.6453 36.4469 48.688 35.484C45.5723 32.3683 40.1712 29.0092 32.977 29.0092C20.7469 29.0092 10.913 38.8431 10.913 51.0732C10.913 63.3033 20.7469 73.1372 32.977 73.1372C41.4938 73.1372 46.8894 68.4609 48.9259 66.4244C49.8833 65.4671 51.3221 64.8639 52.761 64.8639C55.7604 64.8639 58.2783 67.2601 58.2783 70.2595C58.2783 71.6983 57.6807 73.1372 56.8395 73.9783C55.2789 75.6551 47.0056 84.0502 32.977 84.0502C14.6318 84.0502 0 69.4239 0 51.0732C0 32.7225 14.6318 18.0962 32.977 18.0962C45.3288 18.0962 53.3642 24.6927 56.3636 27.6921C57.4427 28.7712 58.0404 30.0883 58.0404 31.6489Z" fill="white"/>
<path d="M160.812 84.0502C142.467 84.0502 127.835 69.4183 127.835 51.0732C127.835 32.728 142.467 18.0962 160.812 18.0962C179.157 18.0962 193.789 32.728 193.789 51.0732C193.789 69.4183 179.157 84.0502 160.812 84.0502ZM160.812 29.0092C148.582 29.0092 138.748 38.8431 138.748 51.0732C138.748 63.3033 148.582 73.1372 160.812 73.1372C173.042 73.1372 182.876 63.3033 182.876 51.0732C182.876 38.8431 173.042 29.0092 160.812 29.0092Z" fill="white"/>
<path d="M299.482 31.6489C299.482 34.6483 296.965 37.0445 293.965 37.0445C292.526 37.0445 291.087 36.4469 290.13 35.484C287.014 32.3683 281.613 29.0092 274.419 29.0092C262.189 29.0092 252.355 38.8431 252.355 51.0732C252.355 63.3033 262.189 73.1372 274.419 73.1372C282.936 73.1372 288.331 68.4609 290.368 66.4244C291.325 65.4671 292.764 64.8639 294.203 64.8639C297.202 64.8639 299.72 67.2601 299.72 70.2595C299.72 71.6983 299.123 73.1372 298.282 73.9783C296.721 75.6551 288.448 84.0502 274.419 84.0502C256.074 84.0502 241.442 69.4183 241.442 51.0732C241.442 32.728 256.074 18.0962 274.419 18.0962C286.771 18.0962 294.806 24.6927 297.806 27.6921C298.885 28.7712 299.482 30.0883 299.482 31.6489Z" fill="white"/>
<path d="M343.494 33.0877C339.775 33.0877 338.696 29.0091 332.343 29.0091C325.63 29.0091 320.229 34.5265 320.229 41.4827C323.826 39.3245 327.905 38.0074 332.343 38.0074C345.652 38.0074 348.774 46.2807 348.774 51.0786C348.774 55.8766 345.658 64.1499 332.343 64.1499C327.905 64.1499 323.826 62.949 320.229 60.6746C320.229 67.6308 325.625 73.0264 332.343 73.0264C339.061 73.0264 339.897 68.9479 343.738 68.9479C346.737 68.9479 349.255 71.3441 349.255 74.3435C349.255 79.5012 340.019 84.0556 332.349 84.0556C319.637 84.0556 309.322 73.7403 309.322 61.0287C309.322 57.4316 310.163 54.0725 311.602 51.0731C310.163 48.0737 309.322 44.7146 309.322 41.1175C309.322 28.4059 319.637 18.0906 332.349 18.0906C339.786 18.0906 349.017 22.4071 349.017 27.6865C349.017 30.6859 346.499 33.0821 343.5 33.0821L343.494 33.0877ZM324.905 51.0731C327.064 52.8716 329.582 53.9508 332.343 53.9508C335.818 53.9508 338.458 53.2314 338.458 51.0731C338.458 48.9148 335.818 48.0737 332.343 48.0737C329.587 48.0737 327.069 49.2746 324.905 51.0731Z" fill="white"/>
<path d="M110.176 18.3895C107.11 18.4448 104.714 21.0735 104.714 24.1393V33.9732C104.714 40.4258 99.4787 45.6609 93.0261 45.6609C86.5734 45.6609 81.3383 40.4258 81.3383 33.9732V23.9567C81.3383 20.8853 78.848 18.3895 75.7711 18.3895C72.6997 18.3895 70.2039 20.8798 70.2039 23.9567V77.9462C70.2039 81.0175 72.6942 83.5134 75.7711 83.5134C78.8425 83.5134 81.3383 81.0231 81.3383 77.9462V68.4831C81.3383 62.0305 86.5734 56.7953 93.0261 56.7953C99.4787 56.7953 104.714 62.0305 104.714 68.4831V79.7447C104.714 81.8255 106.402 83.5134 108.482 83.5134H112.08C114.16 83.5134 115.848 81.8255 115.848 79.7447V23.9511C115.848 20.841 113.297 18.3286 110.176 18.384V18.3895Z" fill="white"/>
<path d="M373.217 34.7645C373.217 38.5996 375.857 40.3981 382.929 42.0805C386.045 42.7999 399 48.3173 399 62.8274C399 74.5815 389.404 84.0502 377.656 84.0502C365.907 84.0502 358.226 74.814 358.226 70.3812C358.226 67.3818 360.622 64.9856 363.621 64.9856C366.261 64.9856 367.578 66.4244 368.895 68.5827C369.377 69.4239 372.492 73.1372 377.65 73.1372C383.405 73.1372 388.082 68.5827 388.082 62.8218C388.082 56.585 383.527 52.9879 376.809 51.6708C373.212 50.9514 362.299 46.5132 362.299 34.7645C362.299 25.6501 369.853 18.0962 378.967 18.0962C388.563 18.0962 394.435 26.1315 394.435 29.8504C394.435 32.8498 391.917 35.246 388.917 35.246C386.521 35.246 384.96 33.6854 384.601 33.0877C383.881 32.0086 382.802 29.0092 378.967 29.0092C375.851 29.0092 373.212 31.6489 373.212 34.7645H373.217Z" fill="white"/>
<path d="M210.208 7.47087C210.208 3.35913 213.567 0 217.679 0C221.791 0 225.15 3.36466 225.15 7.47087C225.15 11.5771 221.791 14.9417 217.679 14.9417C213.567 14.9417 210.208 11.5826 210.208 7.47087ZM209.212 49.8058C210.336 48.4334 211.951 47.0665 213.695 45.8214C216.307 44.0782 218.05 41.0898 218.05 37.7307C218.05 33.7462 215.687 30.5088 212.073 29.0147C205.1 26.2753 209.207 15.6888 216.307 18.4282C224.027 21.2948 229.505 28.7656 229.505 37.7307C229.505 42.9603 227.889 47.4428 224.895 51.051C223.772 52.2961 221.536 54.2883 219.666 55.5335C217.425 57.1494 215.93 59.8887 215.93 63.0044C215.93 66.9888 218.299 70.3535 221.785 71.8421C228.758 74.5815 224.774 85.0407 217.674 82.3014C209.954 79.4348 204.475 72.0912 204.475 63.0044C204.475 57.902 206.218 53.2922 209.207 49.8058H209.212Z" fill="white"/>
</svg>
