<svg width="1182" height="78" viewBox="0 0 1182 78" fill="none" xmlns="http://www.w3.org/2000/svg">
<mask id="mask0_9500_669" style="mask-type:alpha" maskUnits="userSpaceOnUse" x="0" y="0" width="1182" height="78">
<path d="M1143 78.0001L39 78C17.4609 78 1.42053e-06 60.5391 3.17284e-06 38.9999C4.92515e-06 17.4608 17.4609 -0.000112801 39 -0.000110777L1143 -7.06352e-06C1164.54 -5.04006e-06 1182 17.4609 1182 39.0001C1182 60.5392 1164.54 78.0001 1143 78.0001Z" fill="url(#paint0_linear_9500_669)"/>
</mask>
<g mask="url(#mask0_9500_669)">
<path d="M430.113 104.944C439.658 102.806 448.108 98.1532 456.144 92.7082C463.072 88.0178 469.498 82.5351 475.308 76.4991C482.161 69.3817 487.719 61.8744 492.07 52.9965C495.78 45.439 498.018 37.1646 498.961 28.8023C502.746 -4.9992 481.759 -40.0833 449.265 -51.0738C431.761 -56.9841 412.156 -56.1919 395.205 -48.8984C377.236 -41.1774 362.586 -24.9557 357.279 -6.04291C351.797 13.5112 356.16 35.6431 370.86 50.2175C378.619 57.9133 387.761 62.8427 398.525 64.7918C407.893 66.4895 418.054 64.8799 426.718 61.0571C435.345 57.2469 442.248 50.8336 447.278 42.9366C451.805 35.8191 454.899 28.1484 453.842 19.5849C452.736 10.6818 446.222 1.38889 438.903 -3.57822C430.051 -9.57648 417.727 -10.4064 408.22 -5.40159C403.48 -2.91175 399.192 0.772717 396.538 5.47575C393.721 10.468 394.023 17.422 399.38 20.7543C404.071 23.6843 411.628 23.2819 414.659 17.9124C415.086 17.1579 415.589 16.4788 416.055 15.7369C416.985 14.2531 415.514 16.3028 415.3 16.4788C415.614 16.2273 415.891 15.8752 416.193 15.5986C416.746 15.0956 417.702 14.6303 418.142 14.0519C417.186 15.3219 416.268 15.1459 417.325 14.6177C417.878 14.3411 418.419 14.0519 418.985 13.813C419.362 13.6495 419.777 13.5363 420.129 13.3603C417.916 14.4417 418.394 13.8633 419.223 13.6872C420.028 13.5112 420.846 13.3854 421.65 13.2345C423.335 12.9201 420.921 13.2848 420.695 13.2471C421.072 13.2974 421.537 13.2471 421.927 13.2471C422.342 13.2597 422.757 13.2848 423.159 13.3225C423.474 13.3477 423.776 13.3854 424.077 13.4357C424.92 13.5614 424.492 13.4609 422.807 13.1339C423.512 13.4734 424.442 13.5615 425.184 13.8381C425.524 13.9639 426.001 14.2531 426.341 14.3034C426.127 14.2656 423.889 12.8447 425.385 13.8255C426.089 14.2908 426.794 14.7435 427.473 15.2465C428.63 16.1016 426.957 15.5106 426.731 14.5549C426.819 14.9573 427.661 15.5357 427.925 15.8249C428.542 16.504 429.133 17.2082 429.698 17.925C429.975 18.2771 431.572 20.7669 430.566 19.0064C429.548 17.2333 430.994 19.7986 431.22 20.2513C431.572 20.943 431.824 21.6723 432.151 22.3765C432.679 23.546 431.484 19.8489 431.736 21.0813C431.798 21.3831 431.899 21.6849 431.962 21.9867C432.088 22.5777 432.125 23.1813 432.251 23.7723C432.49 24.9795 432.264 21.0687 432.176 22.2885C432.151 22.5777 432.176 22.8669 432.163 23.1561C432.138 23.81 432.025 24.4514 431.962 25.1053C431.811 26.7149 432.239 23.4454 432.276 23.5963C432.301 23.7346 432.113 24.2753 432.05 24.4514C431.849 25.0172 431.685 25.5957 431.471 26.1616C431.258 26.74 430.994 27.2933 430.755 27.8717C430.139 29.3304 431.396 26.5388 431.459 26.5262C431.383 26.5262 430.805 27.7334 430.755 27.8214C430.076 29.0161 429.346 30.1856 428.592 31.3424C427.611 32.8263 426.278 34.2095 425.398 35.7311C425.486 35.5802 427.397 33.694 426.077 34.9892C425.762 35.291 425.473 35.6054 425.159 35.9072C424.543 36.4982 423.889 37.0766 423.222 37.6173C422.556 38.1706 421.864 38.6736 421.16 39.1766C420.38 39.7551 419.965 39.4533 421.94 38.7114C421.462 38.8874 420.997 39.2772 420.544 39.5287C418.934 40.4341 417.262 41.2138 415.552 41.8677C415.162 42.0186 414.684 42.1318 414.332 42.3078C414.52 42.2198 416.897 41.591 415.137 42.0312C414.181 42.2701 413.25 42.5342 412.282 42.7354C410.559 43.1 408.837 43.3012 407.101 43.4647C405.705 43.603 409.352 43.427 407.944 43.4018C407.504 43.4018 407.076 43.4144 406.636 43.4018C405.655 43.4018 404.674 43.3515 403.693 43.2635C402.826 43.188 401.958 43.0875 401.09 42.9491C400.763 42.8988 400.16 42.7102 399.808 42.7228C401.694 42.6222 401.694 43.1503 400.688 42.8737C398.777 42.3581 396.915 41.7797 395.092 40.9874C394.891 40.8994 394.136 40.4467 393.86 40.4216C395.18 40.497 395.821 41.4779 394.677 40.824C393.898 40.3838 393.105 39.9311 392.351 39.4533C390.628 38.3593 389.169 36.9383 387.497 35.8065C387.673 35.9197 389.509 37.7557 388.188 36.4101C387.874 36.0832 387.547 35.7814 387.233 35.4545C386.604 34.8131 385.988 34.1467 385.397 33.455C384.806 32.776 384.24 32.0718 383.687 31.3424C383.41 30.9778 383.146 30.6131 382.882 30.2484C382.605 29.8586 381.8 28.1736 382.505 29.758C383.171 31.2544 382.618 29.9215 382.366 29.5191C382.077 29.0286 381.788 28.5382 381.511 28.0478C381.071 27.2556 380.656 26.4382 380.266 25.6208C379.876 24.8035 379.512 23.9609 379.16 23.1184C378.984 22.6909 378.82 22.2759 378.669 21.8484C378.518 21.4585 378.015 19.5346 378.43 21.2448C378.858 23.043 378.091 19.9873 378.003 19.6352C377.776 18.7549 377.588 17.8621 377.412 16.9693C377.248 16.0764 377.097 15.1836 376.984 14.2782C376.921 13.8255 376.871 13.3728 376.833 12.9201C376.67 11.2351 376.946 12.4171 376.833 13.3477C377.085 11.4614 376.808 9.43687 376.972 7.52547C377.06 6.44402 377.198 5.35 377.361 4.28113C377.437 3.80328 377.525 3.32544 377.6 2.84759C377.802 1.48949 377.047 5.11108 377.55 3.14939C378.028 1.26314 378.543 -0.597958 379.197 -2.4339C379.524 -3.35187 379.876 -4.25727 380.254 -5.15009C380.442 -5.60279 380.631 -6.04291 380.832 -6.49561C380.983 -6.83514 381.134 -7.16209 381.297 -7.48904C381.675 -8.26868 381.499 -7.92916 380.769 -6.49561C381.071 -6.54591 381.964 -8.70881 382.178 -9.06091C382.668 -9.90343 383.184 -10.7334 383.712 -11.5507C384.844 -13.2987 386.076 -14.9711 387.396 -16.5807C387.509 -16.7316 388.603 -17.964 388.578 -17.9765C388.616 -17.9262 386.579 -15.8765 388.075 -17.4233C388.754 -18.1274 389.433 -18.8316 390.138 -19.5107C391.584 -20.9065 393.105 -22.2143 394.702 -23.4341C395.394 -23.9622 396.086 -24.4778 396.802 -24.9682C397.154 -25.2197 397.519 -25.4587 397.871 -25.6976C399.041 -26.5024 395.884 -24.4904 397.117 -25.2071C398.701 -26.1377 400.286 -27.0557 401.945 -27.8605C403.593 -28.6653 405.278 -29.3946 407.001 -30.0485C407.365 -30.1868 410.245 -31.0797 408.422 -30.5892C406.787 -30.1491 408.22 -30.5264 408.635 -30.6395C409.151 -30.7904 409.679 -30.9413 410.195 -31.0797C413.753 -32.0354 417.4 -32.6767 421.072 -33.0162C421.5 -33.0539 421.94 -33.0917 422.367 -33.1168C423.411 -33.2048 423.273 -32.6893 421.512 -33.0665C422.279 -32.903 423.323 -33.1168 424.115 -33.1294C426.064 -33.1294 428.026 -33.0539 429.975 -32.8779C431.71 -32.727 433.433 -32.5006 435.143 -32.224C435.571 -32.1485 435.998 -32.0731 436.426 -31.9976C437.407 -31.8216 437.369 -31.3312 435.546 -32.1737C436.363 -31.7964 437.507 -31.7084 438.388 -31.4821C441.833 -30.5515 445.203 -29.3317 448.423 -27.8102C448.8 -27.6341 449.202 -27.3952 449.592 -27.2443C446.926 -28.2754 447.995 -28.0742 448.687 -27.6844C449.529 -27.2066 450.384 -26.7413 451.214 -26.2383C452.786 -25.2826 454.32 -24.2515 455.791 -23.1449C457.124 -22.1389 458.344 -21.0197 459.639 -19.976C456.835 -22.2143 458.935 -20.5921 459.639 -19.9257C460.344 -19.234 461.035 -18.5299 461.714 -17.8131C464.003 -15.3861 466.103 -12.7831 468.014 -10.0418C468.53 -9.29983 469.8 -6.98603 468.102 -9.99145C468.492 -9.3124 468.932 -8.6585 469.322 -7.99203C470.165 -6.55848 470.944 -5.09979 471.674 -3.61594C472.365 -2.22012 472.994 -0.799152 473.585 0.646969C473.874 1.36374 474.163 2.09309 474.428 2.82244C474.566 3.18711 474.692 3.55178 474.817 3.91645C475.421 5.57635 474.754 3.86616 474.604 3.18711C475.358 6.43145 476.352 9.55004 476.867 12.8573C477.106 14.404 477.295 15.9633 477.42 17.5226C477.458 17.9124 477.458 18.3148 477.508 18.692C477.131 15.8124 477.42 16.9064 477.446 17.6483C477.471 18.6292 477.496 19.61 477.483 20.6034C477.446 23.9861 477.156 27.3562 476.59 30.6885C476.414 31.6945 475.572 33.9329 476.59 30.8646C476.339 31.6191 476.226 32.449 476.025 33.2287C475.584 34.9137 475.081 36.5862 474.516 38.2209C473.962 39.7928 473.359 41.3395 472.692 42.8737C472.353 43.6533 471.988 44.4078 471.636 45.1749C471.032 46.4827 472.793 42.9869 472.114 44.2569C471.812 44.8228 471.51 45.4012 471.196 45.9545C469.423 49.1486 467.386 52.1917 465.135 55.0714C464.041 56.4672 462.859 57.7876 461.714 59.1331C464.104 56.3289 462.28 58.4918 461.651 59.1583C460.922 59.9128 460.193 60.6673 459.451 61.4092C456.747 64.1002 453.93 66.6529 450.988 69.0925C448.033 71.5446 444.964 73.871 441.77 76.0087C441.381 76.2728 441.003 76.5243 440.613 76.7758C439.406 77.5806 442.512 75.6063 441.267 76.3482C440.488 76.8135 439.708 77.3039 438.928 77.7566C437.206 78.75 435.433 79.6932 433.634 80.5483C432.1 81.2776 430.541 81.9315 428.956 82.5225C428.567 82.6608 428.189 82.7866 427.8 82.9249C426.504 83.3902 430.076 82.2962 428.755 82.6105C427.9 82.8118 427.058 83.0632 426.203 83.2645C420.594 84.5219 416.042 90.143 417.4 96.0783C418.695 101.712 424.216 106.226 430.214 104.881L430.113 104.944Z" fill="white" fill-opacity="0.1"/>
<path d="M108.589 84.7652C113.883 94.8807 119.956 104.657 127.523 113.211C146.525 134.732 175.4 147.461 204.072 145.866C232.744 144.27 260.432 127.909 274.683 102.994C277.839 97.4945 280.384 91.5202 280.893 85.1725C281.436 78.8588 279.875 72.4772 277.194 66.7405C270.883 53.3323 257.887 43.2507 243.331 40.4672C228.774 37.6838 210.112 43.8617 199.288 54.0112V54.0791C198.677 34.5269 194.639 15.6197 181.304 2.00781C169.123 -10.382 150.257 -15.7453 133.393 -11.638C116.563 -7.49673 102.312 5.97935 97.2901 22.6123C91.0128 43.2847 98.5795 65.6203 108.623 84.7652H108.589Z" fill="white" fill-opacity="0.1"/>
<path d="M1038.79 124.138C1053.96 121.56 1069.48 117.132 1082.4 108.499C1096.67 98.9514 1106.95 85.5384 1113.24 69.6239C1119.05 54.9418 1120.32 38.0948 1116.43 22.7705C1112.84 8.62203 1104.93 -4.5813 1094.42 -14.6789C1073.19 -35.0873 1041.8 -43.5708 1013.82 -32.8268C1000.47 -27.7035 988.188 -19.6954 979.091 -8.52079C969.232 3.58557 962.242 18.178 961.69 34.0128C961.397 42.5219 963.141 51.9034 967.983 59.0488C973.13 66.6451 980.872 72.3959 989.994 74.2156C999.587 76.133 1008.87 74.859 1017.66 70.6003C1025.9 66.6181 1032.69 59.8646 1037.81 52.3946C1046.84 39.2001 1049.43 22.874 1047.57 7.25799C1045.74 -8.02148 1037.99 -22.4196 1027.16 -33.2409C1003.23 -57.1402 967.365 -62.9751 935.478 -54.3157C906.04 -46.3201 881.411 -27.4548 863.075 -3.46831C844.735 20.5314 834.259 49.406 830.299 79.1751C825.941 111.861 830.107 145.581 838.847 177.22C840.947 184.852 843.354 192.395 845.982 199.856C847.049 202.867 848.49 205.383 851.325 207.093C853.794 208.578 857.414 209.264 860.222 208.427C865.851 206.755 870.977 200.393 868.793 194.187C863.806 180.061 859.678 165.641 856.733 150.942C856 147.267 855.34 143.585 854.753 139.893C854.177 136.218 853.958 132.427 853.244 128.786C853.312 129.117 853.521 131.515 853.304 129.356C853.262 128.933 853.222 128.497 853.18 128.073C853.098 127.214 853.016 126.355 852.947 125.499C852.792 123.64 852.65 121.785 852.538 119.924C852.294 116.069 852.149 112.212 852.118 108.357C852.046 100.942 852.348 93.5144 853.077 86.1301C853.249 84.4302 853.437 82.7205 853.648 81.0313C853.762 80.1818 853.863 79.3287 853.991 78.4828C854.07 77.9221 854.166 77.3517 854.232 76.7874C854.459 75.1449 853.867 78.8898 854.161 77.2651C854.801 73.6042 855.468 69.9504 856.301 66.3127C857.726 60.0376 859.536 53.8654 861.714 47.8059C862.788 44.8008 864.006 41.848 865.223 38.8952C865.712 37.7062 864.728 39.9977 864.752 39.9616C864.911 39.635 865.046 39.288 865.208 38.9482C865.516 38.2782 865.823 37.6083 866.13 36.9383C866.862 35.3742 867.616 33.8304 868.397 32.2937C871.283 26.6086 874.522 21.089 878.096 15.8013C879.88 13.1706 881.736 10.5878 883.674 8.06951C883.895 7.7739 884.139 7.49866 884.347 7.19951C884.374 7.15009 882.798 9.11238 883.616 8.12508C884.163 7.46246 884.696 6.7963 885.239 6.14693C886.261 4.93025 887.292 3.73036 888.346 2.5508C892.546 -2.15772 897.067 -6.58145 901.878 -10.6578C903.073 -11.672 904.29 -12.6659 905.53 -13.6394C906.103 -14.0821 906.699 -14.5044 907.249 -14.9675C907.303 -15.0098 905.202 -13.472 906.268 -14.2224C906.656 -14.5019 907.046 -14.7946 907.447 -15.0706C910.099 -16.9715 912.824 -18.7682 915.616 -20.4473C918.307 -22.0683 921.069 -23.5849 923.883 -24.9743C925.191 -25.6175 926.495 -26.2474 927.832 -26.8402C928.496 -27.145 929.169 -27.433 929.829 -27.7245C930.164 -27.8619 930.503 -28.0125 930.838 -28.1499C932.592 -28.872 931.239 -28.2695 930.285 -27.943C937.179 -30.2549 943.898 -32.4998 951.096 -33.7224C952.717 -33.9978 954.523 -34.0106 956.113 -34.4361C956.087 -34.4432 953.725 -34.2103 955.073 -34.3173C955.636 -34.3511 956.192 -34.4148 956.759 -34.4619C957.744 -34.5384 958.727 -34.6017 959.705 -34.6518C963.343 -34.8267 966.994 -34.7852 970.641 -34.5177C972.312 -34.3964 973.992 -34.2019 975.655 -33.9977C976.591 -33.8888 977.084 -33.345 975.141 -34.0928C975.501 -33.9537 976.01 -33.9451 976.388 -33.8722C977.349 -33.6998 978.32 -33.5105 979.271 -33.2983C982.625 -32.57 985.918 -31.6167 989.137 -30.4417C989.835 -30.1839 990.546 -29.9225 991.236 -29.6381C991.583 -29.5026 991.923 -29.3406 992.273 -29.2183C993.473 -28.7691 991.21 -29.7018 991.247 -29.6779C992.789 -28.867 994.411 -28.1912 995.95 -27.3671C998.805 -25.8358 1001.58 -24.113 1004.21 -22.2163C1004.8 -21.7872 1005.38 -21.2354 1006.01 -20.8822C1005.8 -21.0088 1003.88 -22.6309 1005.41 -21.3546C1005.7 -21.107 1005.98 -20.8761 1006.27 -20.6417C1007.51 -19.5998 1008.7 -18.5157 1009.85 -17.382C1012.18 -15.1113 1014.14 -12.6007 1016.25 -10.1473C1016.28 -10.1102 1014.81 -12.1636 1015.52 -11.0941C1015.72 -10.7847 1015.95 -10.4815 1016.16 -10.1854C1016.65 -9.47206 1017.12 -8.74905 1017.59 -8.0128C1018.45 -6.64815 1019.25 -5.2544 1019.99 -3.82188C1020.73 -2.4026 1021.36 -0.941949 1022.01 0.509014C1022.55 1.71874 1021.49 -0.836678 1021.51 -0.746576C1021.6 -0.409087 1021.76 -0.0671038 1021.88 0.260683C1022.16 1.04706 1022.43 1.8564 1022.67 2.65861C1023.58 5.65722 1024.19 8.71729 1024.66 11.8081C1024.96 13.8618 1024.45 9.1539 1024.65 11.9044C1024.69 12.6269 1024.74 13.3494 1024.78 14.0683C1024.84 15.6325 1024.83 17.1922 1024.77 18.7509C1024.71 20.3097 1024.58 21.8639 1024.39 23.4172C1024.35 23.7757 1024.26 24.1369 1024.24 24.4857C1024.24 24.5555 1024.7 21.9957 1024.43 23.245C1024.24 24.1863 1024.07 25.1214 1023.85 26.0555C1023.52 27.4435 1023.15 28.8341 1022.71 30.1936C1022.5 30.8752 1022.26 31.5497 1022.01 32.2206C1021.8 32.7891 1020.67 35.5239 1021.41 33.8202C1022.17 32.1068 1021.16 34.3048 1020.96 34.7073C1020.64 35.3436 1020.31 35.98 1019.96 36.5961C1019.14 38.0524 1018.26 39.4608 1017.29 40.8348C1017.04 41.1798 1015.59 43.0911 1016.68 41.7058C1017.76 40.3072 1016.07 42.3674 1015.77 42.6983C1014.48 44.1398 1013.09 45.4868 1011.61 46.7356C1011.44 46.8758 1010.7 47.3289 1010.64 47.5275C1010.66 47.4746 1012.53 46.2156 1011.43 46.942C1010.74 47.3961 1010.07 47.8837 1009.37 48.3076C1008.55 48.8127 1007.72 49.2842 1006.86 49.7222C1006.5 49.909 1006.12 50.0922 1005.75 50.2622C1005.43 50.4164 1003.67 51.1517 1005.34 50.4913C1007.03 49.8248 1004.53 50.7306 1004.09 50.8528C1003.32 51.0859 1002.53 51.2855 1001.74 51.4453C1001.38 51.519 1001.03 51.5796 1000.67 51.6533C998.711 52.0661 1001.36 51.5685 1001.62 51.5829C1000.79 51.5289 999.905 51.6904 999.054 51.6894C998.315 51.6903 997.584 51.6646 996.85 51.5958C996.545 51.5707 996.055 51.4394 995.758 51.4876C995.758 51.4876 998.184 51.9674 996.955 51.6807C995.272 51.2865 993.697 50.8077 992.05 50.2811C990.876 49.8955 993.129 50.7549 993.139 50.7717C992.91 50.5683 992.45 50.4309 992.18 50.2733C991.547 49.9334 990.925 49.5538 990.323 49.1512C987.998 47.6055 991.529 50.4253 990.102 49.0211C989.474 48.3986 988.839 47.8026 988.252 47.1342C988.023 46.8743 987.79 46.4713 987.521 46.2572C987.58 46.3014 988.822 48.238 988.244 47.1607C987.842 46.3857 987.322 45.6785 986.919 44.9035C986.751 44.5747 986.608 44.2098 986.424 43.8908C985.78 42.7957 986.846 45.0685 986.856 45.0853C986.657 44.2373 986.269 43.4092 986.04 42.5673C985.84 41.8322 985.656 41.0875 985.502 40.3366C985.398 39.826 985.4 37.9104 985.082 37.6689C985.154 37.7167 985.243 40.1393 985.244 38.8623C985.248 38.4798 985.198 38.0832 985.174 37.6937C985.137 36.7752 985.139 35.8673 985.157 34.9497C985.179 34.0753 984.952 30.3666 985.572 29.8515C985.609 29.8189 985.137 32.2188 985.415 30.9165C985.504 30.5288 985.551 30.1439 985.64 29.7562C985.822 28.868 986.029 27.9868 986.254 27.0959C986.997 24.215 988.005 21.4616 989.112 18.7065C989.581 17.5404 988.529 19.9837 988.59 19.9149C988.824 19.6229 989.017 19.0075 989.172 18.6942C989.462 18.0904 989.768 17.477 990.084 16.8804C990.758 15.5847 991.498 14.3067 992.257 13.0623C993.029 11.8215 993.842 10.5913 994.687 9.39824C995.075 8.84936 995.49 8.30757 995.891 7.76225C997.025 6.23481 994.275 9.71392 995.929 7.72962C997.812 5.46651 999.834 3.32545 1001.98 1.31612C1003.05 0.313242 1004.15 -0.669309 1005.3 -1.59793C1005.82 -2.02477 1006.36 -2.44805 1006.89 -2.87489C1007.18 -3.10947 1008.19 -3.86071 1006.75 -2.78406C1005.08 -1.52841 1006.95 -2.90041 1007.18 -3.06618C1009.59 -4.76166 1012.11 -6.31569 1014.71 -7.69211C1015.9 -8.33717 1017.13 -8.93185 1018.36 -9.50975C1018.98 -9.79869 1019.6 -10.0708 1020.23 -10.3298C1020.53 -10.461 1020.85 -10.5887 1021.17 -10.7164C1022.55 -11.2985 1018.46 -9.711 1020.45 -10.4125C1023.23 -11.4001 1026.01 -12.2711 1028.89 -12.9213C1030.2 -13.2217 1031.53 -13.4754 1032.87 -13.699C1033.54 -13.8042 1034.21 -13.8926 1034.88 -13.9845C1035.69 -14.0939 1036.98 -14.0023 1033.77 -13.8701C1034.21 -13.8926 1034.67 -13.9547 1035.12 -13.9904C1038.07 -14.2068 1041.04 -14.2068 1043.99 -13.9974C1045.38 -13.8942 1046.79 -13.6178 1048.17 -13.5446C1048.27 -13.533 1045.63 -13.9999 1046.89 -13.7458C1047.35 -13.6516 1047.81 -13.5839 1048.27 -13.4898C1049.07 -13.3334 1049.87 -13.1602 1050.66 -12.9773C1053.6 -12.2893 1056.49 -11.3859 1059.31 -10.2909C1059.95 -10.0473 1060.59 -9.72063 1061.25 -9.49992C1061.33 -9.47862 1058.95 -10.5563 1060.1 -10.0083C1060.41 -9.85333 1060.73 -9.71161 1061.05 -9.56993C1062.52 -8.87662 1063.96 -8.12068 1065.4 -7.32498C1068.04 -5.83719 1070.59 -4.17463 1073.02 -2.35767C1073.31 -2.15332 1073.58 -1.926 1073.86 -1.72165C1074.9 -0.975889 1072.82 -2.55398 1072.88 -2.50974C1073.47 -1.95438 1074.15 -1.46079 1074.76 -0.941618C1075.91 0.048927 1077.03 1.08535 1078.12 2.14472C1080.29 4.27313 1082.32 6.53564 1084.21 8.91543C1084.42 9.18505 1084.64 9.47147 1084.86 9.7411C1085.65 10.7356 1084.05 8.62997 1084.08 8.71039C1084.36 9.4102 1085.06 10.0805 1085.49 10.7195C1086.33 11.9676 1087.15 13.2651 1087.91 14.5616C1089.45 17.1883 1090.54 20.0069 1091.95 22.6847C1092 22.7987 1090.99 20.1276 1091.43 21.3822C1091.58 21.8205 1091.77 22.2526 1091.92 22.6908C1092.15 23.35 1092.38 24.0056 1092.59 24.6744C1093.06 26.1189 1093.46 27.5758 1093.82 29.0485C1094.18 30.5644 1094.5 32.083 1094.74 33.6236C1094.86 34.3806 1094.96 35.1438 1095.06 35.9105C1095.26 37.2408 1094.93 34.6545 1094.92 34.6942C1094.89 35.1826 1095.01 35.74 1095.05 36.2329C1095.28 39.5592 1095.23 42.8976 1094.94 46.2118C1094.86 47.0985 1094.76 47.9948 1094.65 48.8875C1094.61 49.2593 1094.5 49.6566 1094.5 50.0258C1094.5 50.039 1094.93 47.6417 1094.67 48.9079C1094.31 50.6711 1094 52.4318 1093.55 54.1703C1092.73 57.3991 1091.67 60.5808 1090.42 63.6661C1090.29 64.013 1090.08 64.3686 1089.98 64.7262C1089.98 64.7262 1090.98 62.5813 1090.42 63.7358C1090.08 64.4252 1089.76 65.1349 1089.42 65.8242C1088.62 67.4271 1087.75 69.0123 1086.84 70.5568C1086.06 71.8806 1085.23 73.177 1084.37 74.4495C1083.94 75.0876 1083.49 75.7052 1083.04 76.3362C1082.72 76.7765 1082.38 77.1965 1082.06 77.6368C1081.12 78.9313 1083.45 76.0205 1082.39 77.2C1080.08 79.7885 1077.8 82.3144 1075.19 84.6084C1074.6 85.1173 1074 85.6262 1073.4 86.1183C1073.06 86.3952 1071.04 87.9675 1072.48 86.8643C1073.98 85.7189 1071.51 87.5264 1071.2 87.7407C1070.45 88.237 1069.7 88.7298 1068.94 89.2094C1066.12 90.9644 1063.16 92.5276 1060.13 93.9035C1059.42 94.2242 1058.72 94.5316 1058.01 94.8257C1057.66 94.9728 1057.29 95.0995 1056.94 95.2766C1056.89 95.2924 1059.34 94.3724 1058.07 94.8266C1056.36 95.4464 1054.66 96.0696 1052.92 96.6257C1046.46 98.6987 1039.82 100.144 1033.15 101.278C1027.08 102.307 1022.86 109.736 1024.58 115.518C1026.5 122.009 1032.3 125.197 1038.82 124.089L1038.79 124.138Z" fill="white" fill-opacity="0.1"/>
<path d="M581.985 78.5355C577.624 83.1993 575.929 89.7323 574.948 96.0454C573.602 104.759 573.363 113.894 576.424 122.159C579.484 130.424 586.347 137.681 595.015 139.284C605.094 141.144 615.31 135.014 621.284 126.676C627.258 118.338 629.851 108.122 632.325 98.1712C633.352 103.742 633.828 108.003 636.577 112.951C639.326 117.898 643.495 120.675 649.056 121.728C655.214 122.892 663.195 119.85 667.391 115.195C671.588 110.541 673.402 107.343 674.73 101.213C676.49 93.095 676.783 84.6653 675.601 76.4464C682.445 88.2113 694.998 95.1933 708.147 98.7209C722.596 102.597 736.093 94.8084 744.074 83.7766C750.992 74.2015 752.705 61.7127 751.761 49.9387C751.138 42.1504 749.406 34.3437 745.613 27.5083C741.82 20.6821 735.818 14.8821 728.424 12.3715C716.357 8.27581 702.475 13.7643 694.11 23.376C685.744 32.9876 682.152 45.9437 681.126 58.6524C677.186 51.139 672.101 42.7551 663.717 41.4265C659.172 40.7026 654.481 42.3519 650.742 45.0366C644.329 49.6455 640.407 57.0856 638.584 64.7731C636.769 72.4514 636.852 80.4505 637.099 88.3396C634.103 74.1649 622.769 62.0884 608.823 58.2034C606.844 57.6537 604.562 57.2963 602.867 58.46C601.832 59.1655 601.19 60.3383 600.815 61.5386C599.349 66.1292 601.163 71.4252 604.37 74.8521C596.774 72.2224 587.969 72.1857 582.004 78.5538L581.985 78.5355Z" fill="white" fill-opacity="0.1"/>
</g>
<defs>
<linearGradient id="paint0_linear_9500_669" x1="-5.26623e-06" y1="39.2085" x2="1182" y2="39.2082" gradientUnits="userSpaceOnUse">
<stop offset="0.245458" stop-color="#5758E3"/>
<stop offset="1" stop-color="#6FB8EF"/>
</linearGradient>
</defs>
</svg>
