<svg width="105" height="39" viewBox="0 0 105 39" fill="none" xmlns="http://www.w3.org/2000/svg">
<path d="M104.986 1.45656C105.083 0.794371 104.677 0.485352 104.112 0.485352H95.7333C95.1682 0.485352 94.6561 0.891492 94.559 1.45656L92.9609 10.5241L104.324 5.20011L104.986 1.45656Z" fill="white"/>
<path d="M92.2472 14.5945L88.2211 37.4443C88.124 37.9564 88.4241 38.4685 89.0422 38.4685H97.421C98.1892 38.4685 98.5512 38.0094 98.6483 37.4443L103.61 9.27051L92.2472 14.5945Z" fill="white"/>
<path d="M30.8486 2.26022L29.7273 8.65252C29.6302 9.20875 29.2152 9.62372 28.659 9.62372H28.553C26.5047 9.47363 20.7304 8.96154 17.0575 8.96154C15.6272 8.96154 14.1439 9.42065 14.1439 11.107C14.1439 11.8222 14.656 12.2813 16.3953 13.3055L22.6287 16.9872C26.3104 19.1327 27.7408 21.9492 27.7408 25.525C27.7408 35.0781 19.7151 38.9629 11.0272 38.9629C6.83335 38.9629 3.56657 38.3979 0.961975 37.6297C0.50286 37.4797 0.0878906 37.2148 0.0878906 36.7557V36.6056L1.15622 30.3192C1.26217 29.7542 1.72128 29.295 2.33049 29.295H2.43644C4.52895 29.4981 9.95004 30.0632 12.6606 30.0632C14.7089 30.0632 16.3953 29.348 16.3953 27.0436C16.3953 26.2755 15.8832 25.7104 14.3999 24.7392L7.80456 20.3953C4.83797 18.4529 3.40765 15.1331 3.40765 11.9634C3.39882 2.77231 10.6122 0.00878906 18.735 0.00878906C22.7699 0.00878906 28.0851 0.670975 30.0805 1.28901C30.4866 1.43911 30.8486 1.65101 30.8486 2.11012V2.26022Z" fill="white"/>
<path d="M59.8797 1.64218L58.8025 7.87555C58.6966 8.44062 58.1403 8.89973 57.5753 8.89973H47.254C45.4175 8.89973 44.7024 9.51777 44.3404 11.4514L43.6782 15.1861H56.2509C56.763 15.1861 57.125 15.5392 57.125 16.0513V16.2014L56.0478 22.2317C55.9507 22.788 55.4386 23.2559 54.8735 23.2559H42.3008L41.5327 27.4939C41.4797 27.9 41.4268 28.2091 41.4268 28.5181C41.4268 29.6924 42.0448 30.0543 43.5193 30.0543H53.8405C54.3526 30.0543 54.7058 30.4075 54.7058 30.9284V31.0785L53.5845 37.3119C53.4785 37.9211 53.0724 38.2301 52.4102 38.3361C50.4148 38.5921 47.2981 38.9541 42.3362 38.9541C36.3588 38.9541 30.8848 36.8086 30.8848 30.1073C30.8848 29.2862 30.9819 28.421 31.1408 27.5027L33.9573 11.4514C35.7585 1.13009 41.8947 0.00878906 49.0993 0.00878906C54.0524 0.00878906 57.1691 0.370784 59.0674 0.618C59.6324 0.670974 59.8885 0.92702 59.8885 1.43911V1.64218H59.8797Z" fill="white"/>
<path d="M89.1211 2.26026L87.9998 8.65256C87.8939 9.20879 87.4877 9.62376 86.9315 9.62376H86.8255C84.7772 9.47367 79.0029 8.96158 75.3212 8.96158C73.8908 8.96158 72.4075 9.42069 72.4075 11.1071C72.4075 11.8222 72.9196 12.2813 74.659 13.3055L80.8924 16.9873C84.5741 19.1327 86.0044 21.9492 86.0044 25.525C86.0044 35.0782 77.9787 38.963 69.2909 38.963C65.097 38.963 61.8302 38.3979 59.2256 37.6298C58.7665 37.4797 58.3516 37.2148 58.3516 36.7557V36.6056L59.4199 30.3193C59.5258 29.7542 59.985 29.2951 60.5942 29.2951H60.7001C62.7926 29.4981 68.2137 30.0632 70.9243 30.0632C72.9726 30.0632 74.659 29.3481 74.659 27.0437C74.659 26.2755 74.1469 25.7105 72.6636 24.7392L66.0682 20.3953C63.1016 18.4529 61.6713 15.1331 61.6713 11.9635C61.6713 2.76352 68.8759 0 77.0075 0C81.0424 0 86.3576 0.662185 88.353 1.28023C88.7591 1.43032 89.1211 1.64222 89.1211 2.10133V2.25143V2.26026Z" fill="white"/>
</svg>
